<?xml version="1.0" encoding="UTF-8"?>
<svg id="Layer_2" data-name="Layer 2" xmlns="http://www.w3.org/2000/svg" viewBox="0 0 2929.63 543.14">
  <defs>
    <style>
      .cls-1 {
        fill: #fff;
      }

      .cls-2 {
        fill: aqua;
      }
    </style>
  </defs>
  <g id="Layer_1-2" data-name="Layer 1">
    <g>
      <g>
        <path class="cls-2" d="M288.51,406.64c-.17-.47-.63-1.09-1.37-1.89-3.17-2.45-8.04-5.86-14.65-10.21-5.03-3.14-10.06-6.26-15.11-9.37-1.22-.82-2.33-1.04-3.32-.66-.26.1-.51.23-.76.4,2.33,1.63,4.26,3.04,5.79,4.22.74.79,1.21,1.43,1.38,1.89.17.47.04,1-.42,1.6-.2.07-.36.24-.49.5-5.85,12.64-12.34,23.33-19.53,32.07-9.66,12.26-20.65,22.55-33.04,30.9-3.71,2.55-8.33,5.46-13.85,8.76-5.53,3.3-10.05,5.89-13.57,7.75-10.82,5.49-21.91,9.75-33.31,12.8-11.4,3.04-22.47,4.5-33.25,4.35-12.59-.1-24.44-2.15-35.57-6.2,6.87,5.51,14.63,10.07,23.25,13.73,12.5,5.3,25.94,7.98,40.36,8.09,10.78.15,21.85-1.31,33.26-4.35,11.39-3.05,22.48-7.31,33.31-12.8,3.51-1.86,8.03-4.45,13.56-7.75,5.53-3.3,10.15-6.21,13.85-8.76,12.39-8.35,23.39-18.64,33.04-30.9,7.19-8.75,13.68-19.43,19.54-32.07.12-.26.29-.43.49-.51.45-.59.59-1.12.41-1.59ZM238.97,289.52c-.28-.75-3.12-2.41-8.52-4.98-5.41-2.56-9.88-4.45-13.39-5.68-2.43-.76-4.8-1.44-7.11-2.06-.01.01-.01.03-.02.04-.81,1.58-1.65,3.07-2.52,4.46-.33.66-.67,1.32-1,1.98-1.07,2.12-2.28,4.61-3.65,7.47-1.35,2.87-2.86,5.8-4.52,8.78-1.05,2.11-2.11,4.23-3.16,6.34-.19.4-.39.79-.59,1.19-.39.79-.89,1.31-1.5,1.54-.61.23-1.46.13-2.56-.3-1.85-.9-3.71-1.79-5.56-2.68-2.52-1.39-5.04-2.78-7.56-4.16-6.55-3.04-13.07-4.74-19.55-5.1-6.48-.36-13.02.67-19.6,3.08-9.84,3.71-17.6,8.35-23.26,13.89-5.67,5.55-10.24,11.54-13.72,17.96-3.04,5.8-5.25,12.41-6.63,19.81-1.39,7.41-1.55,14.58-.5,21.52.58,4.75,2.14,9.84,4.67,15.28,2.53,5.45,5.48,9.96,8.85,13.53,3.87,4.23,8.18,7.74,12.93,10.52,4.75,2.79,10.21,4.96,16.37,6.51.03.01.07.01.1.02-.46-.46-.91-.94-1.36-1.43-3.37-3.57-6.32-8.08-8.84-13.53-2.53-5.44-4.09-10.53-4.68-15.28-1.04-6.93-.89-14.11.5-21.52,1.38-7.4,3.59-14.01,6.63-19.81,3.49-6.42,8.06-12.41,13.72-17.96,5.66-5.54,13.42-10.18,23.26-13.89,6.58-2.41,13.12-3.44,19.6-3.08,6.49.36,13.01,2.06,19.56,5.1,2.52,1.38,5.03,2.77,7.55,4.16,1.86.89,3.71,1.78,5.57,2.67,1.09.44,1.95.54,2.56.31.6-.23,1.1-.75,1.5-1.54.19-.4.39-.79.59-1.19,1.05-2.12,2.1-4.23,3.16-6.34,1.65-2.99,3.16-5.91,4.52-8.78,1.36-2.86,2.57-5.35,3.64-7.47.34-.66.67-1.32,1-1.98.88-1.39,1.72-2.88,2.52-4.47.81-1.58,1.14-2.55,1-2.93Z"/>
        <path class="cls-2" d="M408.28,403.57c-9.52-30.35-19.02-60.71-28.5-91.07-3.24-9.67-6.43-19.2-9.57-28.59-3.15-9.39-6.72-20.05-10.72-32-1.49-4.46-2.98-8.92-4.47-13.37-2.1-6.26-4.19-12.52-6.29-18.78-1.2-3.6-2.38-5.89-3.52-6.89-1.15-.98-2.97-1.06-5.47-.22-4.88,1.56-9.75,3.13-14.62,4.71.62,1.85,1.24,3.71,1.86,5.56,1.49,4.45,2.98,8.91,4.47,13.37,4,11.95,7.57,22.61,10.71,32,3.15,9.39,6.34,18.92,9.57,28.59,9.49,30.36,18.99,60.72,28.51,91.07.45,1.33.16,2.95-.83,4.86-1,1.92-2.68,3.28-5.04,4.08-16,5.41-31.97,10.94-47.91,16.59,2.23,6.06,4.46,12.11,6.69,18.16.41,1.13,1.32,1.97,2.74,2.52,1.41.56,2.9.55,4.47-.01,20.63-7.42,41.32-14.63,62.06-21.65,2.36-.79,4.03-2.15,5.03-4.07,1-1.91,1.28-3.53.83-4.86Z"/>
        <path class="cls-2" d="M488.05,376.36c-3.87-12.51-7.75-25.02-11.63-37.54-6.06-19.56-12.12-39.13-18.18-58.7-11.1-8.34-18.98-14.43-23.52-18.32-4.86-4.15-6.73-4.41-5.61-.78,6.43,20.73,12.85,41.46,19.27,62.18,3.88,12.52,7.75,25.03,11.63,37.54.47,1.54.63,2.95.5,4.25-.14,1.3-.71,2.1-1.69,2.41-3.46,1.07-6.14,2.01-8.05,2.81,2.33,7.26,4.28,13.34,5.86,18.26.61,1.91,1.86,2.76,3.76,2.58,2.89-.5,5.91-1.26,9.07-2.26,3.16-1,6.22-1.97,9.19-2.9,1.91-.8,4.65-1.77,8.21-2.87.99-.31,1.55-1.11,1.69-2.41.14-1.3-.02-2.72-.5-4.25ZM655.35,327.51c-6.61-25.87-13.22-51.74-19.82-77.61-4.37-16.22-13.8-52.72-28.31-109.5-.5-1.94-1.13-3.28-1.87-4.01-.76-.74-1.77-.94-3.04-.62-3.3.67-9.69,2.21-19.13,4.66,12.25,47.89,20.35,79.16,24.3,93.85,6.61,25.87,13.22,51.74,19.82,77.61,1.69,6.59.97,10.49-2.12,11.69-.4.14-19.47,4.67-57.04,14.56-7.7,2.03-15.39,4.09-23.08,6.19,5.97,5.3,11.92,10.62,17.84,15.96.67.85,1.4,1.32,2.18,1.41.78.09,1.76-.04,2.96-.38,9.37-2.56,18.76-5.08,28.15-7.56,37.57-9.89,56.64-14.42,57.03-14.56,3.1-1.2,3.81-5.1,2.13-11.69Z"/>
        <path class="cls-2" d="M822.72,204.32c-.45-3.37-1.3-7.69-2.54-12.95-.15-1.8-.58-4.57-1.31-8.3-.08-.39-.16-.79-.23-1.18-.27-1.37-.58-2.64-.91-3.79-.34-1.16-1.05-1.73-2.13-1.73-2.55.3-5.2.63-7.96.97-5,1-9.83,1.98-14.49,2.94.71,3.27,1.22,6.08,1.53,8.43.29,2.59.16,4.4-.39,5.42-.55,1.03-2.48,1.87-5.79,2.52-10.28,1.85-20.56,3.73-30.83,5.66-16.78,3.3-29.91,6.05-39.39,8.13-1.24.27-2.06.76-2.44,1.46-.39.7-.38,1.93,0,3.69,2.33,10.54,4.92,22.26,7.77,35.15.31,1.37.71,2.25,1.23,2.64.52.4,1.3.59,2.37.56,6.96-1.26,13.92-2.5,20.89-3.71-1.49-6.72-2.89-13.06-4.21-19.03-.39-1.75-.39-2.98-.01-3.68.39-.7,1.2-1.19,2.44-1.46,9.49-2.09,22.62-4.84,39.4-8.13,10.27-1.93,20.54-3.82,30.83-5.66,3.3-.65,5.23-1.49,5.79-2.52.55-1.03.67-2.83.38-5.43ZM849.13,116.84c-1.12-6.09-1.96-11.23-2.51-15.4-1.48-8.06-2.47-13.98-2.94-17.76-.22-1.18-1.29-1.6-3.22-1.24-7.27,1.35-14.53,2.71-21.79,4.11.55,4.04,1.36,8.93,2.42,14.67.29,1.58.12,2.78-.49,3.6-.62.83-1.99,1.43-4.11,1.83-8.49,1.58-18.26,3.33-29.32,5.27-5.1.89-10.21,1.79-15.31,2.7-17.59,3.5-31.27,6.15-41.07,7.81-4.07.66-7.67,1.37-10.82,2.15-3.15.78-6.64,1.48-10.49,2.11-3.17.68-6.34,1.38-9.51,2.08-2.32.51-3.13,2.33-2.44,5.45,3.06,13.87,5.95,26.44,8.67,37.72.76,2.49,1.63,3.94,2.59,4.34.96.4,3.09.14,6.38-.79,4.79-1.1,9.93-2.26,15.41-3.48-1.61-6.98-3.28-14.37-5.01-22.17-.69-3.12.12-4.94,2.45-5.46,3.17-.69,6.33-1.39,9.5-2.07,3.85-.64,7.35-1.33,10.49-2.12,3.15-.77,6.76-1.49,10.82-2.14,9.81-1.66,23.49-4.31,41.07-7.81,5.11-.91,10.21-1.81,15.31-2.7,11.06-1.95,20.83-3.7,29.32-5.27,2.12-.4,3.49-1,4.11-1.83.61-.83.78-2.02.49-3.6ZM877.44,280.62c-.25-2.49-.5-4.99-.75-7.48-.44-2.37-.88-4.73-1.31-7.08-.16-2-.53-4.58-1.11-7.73-.38-3.18-1.02-5.51-1.92-6.97-.91-1.46-2.51-2.08-4.79-1.86-4.95.56-11.57,1.54-19.85,2.99.31,1.68.62,3.35.93,5.03.25,2.49.51,4.99.76,7.48.3,2.8.2,4.8-.31,6.01-.51,1.21-1.95,2.14-4.34,2.79-5.97,1.12-11.93,2.24-17.89,3.39-15.63,2.6-25.74,4.54-30.34,5.67-16.15,3.25-32.27,6.62-48.38,10.11-6.34,1.37-12.68,2.77-19.01,4.17-13.16,2.74-26.31,5.55-39.44,8.46,1.29,5.65,2.65,11.41,4.07,17.27.28,1.17.81,2.02,1.57,2.55.77.54,1.55.71,2.36.51,5.61-1.35,11.23-2.69,16.85-4.01,14.2-3.15,28.41-6.2,42.63-9.16,6.34-1.41,12.67-2.8,19.02-4.17,16.1-3.49,32.23-6.86,48.37-10.11,4.6-1.13,14.71-3.07,30.35-5.67,5.96-1.15,11.92-2.28,17.88-3.39,2.39-.65,3.84-1.58,4.35-2.79s.61-3.21.3-6.01Z"/>
        <path class="cls-2" d="M1186.52,242c-1.08-14.76-2.16-29.53-3.24-44.29-.62-8.78-2.07-25.42-4.37-49.91-1.08-11.55-1.98-21.61-2.67-30.19-.7-8.56-1.55-18.23-2.56-28.98-1-12.97-1.91-23.83-2.73-32.59-.28-4.19-.57-8.38-.85-12.58-.19-1.98-.63-3.2-1.32-3.64-.7-.43-2.14-.55-4.3-.35-7.16.6-14.33,1.22-21.49,1.86.8,8.61,1.67,19.16,2.65,31.68,1.01,10.75,1.86,20.42,2.55,28.99.7,8.57,1.59,18.63,2.68,30.18,2.3,24.49,3.75,41.13,4.37,49.91,1.07,14.76,2.15,29.53,3.23,44.29.14,1.4-.01,2.67-.41,3.81-.41,1.14-1.22,1.77-2.45,1.89-16.13,1.53-32.26,3.18-48.38,4.95.5,4.5.99,8.99,1.49,13.49.39,3.38,1.61,4.95,3.65,4.71,23.74-2.76,47.5-5.27,71.29-7.54,1.22-.11,2.03-.74,2.44-1.89.41-1.14.55-2.41.42-3.8ZM1064.78,142.22c-.5-4.27-1-8.54-1.5-12.81-.33-2.78-.84-4.43-1.54-4.96-.71-.52-1.67.4-2.88,2.76-1.33,2.37-2.64,4.74-3.96,7.12-4.59,8-10.31,17.81-17.11,29.45-6.8,11.64-13.84,24.19-21.08,37.66-4.16,6.6-8.37,13.43-12.63,20.47-1.71,2.47-3.41,4.95-5.12,7.43,7.44,9.35,13.15,15.86,17.21,19.51,1.91,1.75,3.62,2.37,5.11,1.85,1.49-.51,3.1-2,4.85-4.46,1.99-2.91,3.99-5.81,6-8.71,4.25-7.04,8.46-13.87,12.63-20.47,7.23-13.47,14.27-26.03,21.07-37.66.94-1.61,1.86-3.18,2.75-4.71-1.71-14.56-2.97-25.38-3.8-32.47ZM962.36,273.78c-4.39-26.54-8.78-53.08-13.18-79.61-.99-5.73-1.98-11.46-2.98-17.19-8.56-9.18-17.2-18.34-25.88-27.47-1.34-1.61-2.42-2.3-3.24-2.06-.82.23-1.07,1.34-.75,3.31,1.6,9.26,3.21,18.52,4.81,27.79,4.39,26.54,8.79,53.07,13.18,79.61.41,2.57-.7,4.07-3.34,4.5-2.02.33-4.05.66-6.07,1,.74,4.26,1.49,8.58,2.24,12.95.44,2.57.94,4.31,1.52,5.22.57.92,1.47,1.27,2.68,1.06,1.79-.5,3.86-.91,6.21-1.21,2.35-.29,4.94-.68,7.78-1.15,4.56-.76,9.12-1.51,13.69-2.25,2.63-.43,3.75-1.93,3.33-4.5Z"/>
        <path class="cls-2" d="M1308.5,108.86c-6.07-11.52-12.01-21.53-17.79-30.04-.7-.97-1.32-1.53-1.86-1.71-.54-.16-1.01.16-1.39.98-10.73,25.21-21.22,50.47-31.45,75.77-.37.82-.42,1.58-.17,2.26.25.69.8,1,1.63.95,9.09-.11,19.84-.65,32.27-1.56,6.27-15.37,12.63-30.72,19.1-46.06-.11-.2-.23-.39-.34-.59ZM1355.55,184.77c-2-3.72-5.08-5.51-9.22-5.35-3.52.13-7.04.28-10.57.42-10.35.44-24.02,1.26-40.97,2.57-12,.64-25.25,1.52-39.71,2.66-1.66.11-3.31.22-4.97.33-3.31.22-5.58,1.98-6.81,5.27-.88,2.27-1.86,4.54-2.94,6.82-.86,2.67-1.81,5.24-2.88,7.72-1.06,2.48-2.12,4.97-3.18,7.45-1.52,3.32-3.03,6.63-4.53,9.95-1.25,2.7-2.99,4.13-5.24,4.3-.12.01-.23.02-.35.03-2.34,5.14-3.69,8.79-4.09,10.95-.81,2.68-.74,4.69.2,6.01.44.37,1.68.46,3.73.29,10.86-.5,19.76-1,26.72-1.52.61-.05,1.22-.09,1.84-.14,2.24-.17,3.99-1.6,5.23-4.3,1.51-3.32,3.02-6.64,4.53-9.95,1.06-2.48,2.12-4.97,3.19-7.45,1.06-2.48,2.02-5.05,2.87-7.72,1.08-2.28,2.06-4.55,2.95-6.82,1.22-3.29,3.49-5.05,6.81-5.27,1.65-.11,3.31-.22,4.96-.33,14.47-1.14,27.71-2.02,39.72-2.66,15.95-1.23,28.99-2.03,39.1-2.48-2.71-4.61-4.85-8.2-6.39-10.78ZM1494.72,221.44c-1.66-2.69-3.32-5.38-4.99-8.07-3.74-5.98-6.47-10.65-8.16-14.04-3.58-6.96-9.69-17.7-18.45-32.18-3.21-5.26-6.43-10.51-9.66-15.75-4.54-8.13-9.22-16.24-14.03-24.34-11.42-20.77-26.6-45.81-45.9-75-4.66-7.35-9.36-14.69-14.08-22.02-2.08-3.53-5.08-5.22-8.99-5.06-3.95.21-7.9.42-11.85.65,2.29,3.6,4.59,7.21,6.88,10.81,19.3,29.19,34.47,54.23,45.89,75,4.81,8.1,9.49,16.21,14.03,24.34,3.24,5.24,6.46,10.49,9.67,15.75,8.76,14.48,14.87,25.22,18.45,32.19,1.68,3.38,4.41,8.06,8.16,14.03,1.67,2.69,3.33,5.38,4.99,8.07,1.87,3.4,2.59,5.89,2.19,7.49-.41,1.01-1.12,1.66-2.14,1.96-1.03.31-2.46.46-4.3.48-20.7.14-36.27.52-46.71.92-6.26.07-12.51.15-18.76.26,2.19,3.74,4.21,7.22,6.06,10.42,1.08,1.97,2.36,3.37,3.82,4.23,1.46.86,3.12,1.26,4.96,1.2,10.65-.21,21.31-.38,31.96-.49,10.45-.41,26.01-.78,46.71-.92,1.84-.02,3.27-.17,4.3-.48,1.02-.31,1.74-.96,2.14-1.96.4-1.6-.32-4.1-2.19-7.49Z"/>
        <path class="cls-2" d="M1918.5,47.79c-.66-.98-1.63-1.54-2.93-1.69-5.18-.68-10.36-1.35-15.54-2.02-7.26-1.16-11.9-1.75-13.89-1.81-7.52,12.19-18.16,29.35-31.72,51.6-16.24,26.64-29.77,49.42-40.82,68.25-5.5,9.12-11.08,18.34-16.73,27.66-6.67,11.44-13.25,22.4-19.73,32.87-1.67,2.67-2.96,4.41-3.85,5.24-.9.83-2.26,1.16-4.1,1.01-10.32-.97-20.66-1.89-30.99-2.76,1.02,2.49,2.05,4.98,3.07,7.47,1.76,4.33,4.68,6.64,8.78,6.93,4.29.3,8.58.62,12.88.94,11.44.95,22.87,1.96,34.3,3.03,1.84.16,3.21-.18,4.1-1,.9-.83,2.18-2.57,3.86-5.24,6.48-10.47,13.05-21.44,19.73-32.87,5.65-9.32,11.22-18.54,16.72-27.66,11.06-18.83,24.59-41.61,40.82-68.25,16.24-26.65,28.3-46.02,35.81-58.25.81-1.31.88-2.47.23-3.45ZM1786.09,117.42c-7.3-16.81-14.73-33.6-22.27-50.37-10-23.36-15.5-36.43-16.17-39.28-.96-2.07-2.11-3.54-3.47-4.44-1.36-.88-3.23-1.5-5.6-1.85-4.67-.37-10-.79-15.96-1.22,2.68,6.61,7.09,17,13.16,31.17,7.54,16.77,14.96,33.56,22.27,50.37,3.33,7.78,6.63,15.57,9.91,23.36,2.22,5.19,4.43,10.39,6.63,15.59,1.04,2.7,2.11,4.34,3.22,4.94,1.1.59,2.26-.06,3.47-1.97,2.42-3.52,5.59-8.62,9.51-15.28-1.56-3.68-3.13-7.35-4.7-11.02Z"/>
        <path class="cls-2" d="M2157.42,284.37c-1.12-2.96-2.24-5.92-3.36-8.88-2.55-6.59-4.34-11.7-5.34-15.35-2.19-7.53-6.15-19.25-11.99-35.15-2.15-5.77-4.31-11.55-6.49-17.32-2.91-8.85-5.96-17.71-9.14-26.59-7.25-22.58-17.37-50.08-30.75-82.44-3.18-8.11-6.39-16.22-9.63-24.32-1.37-3.87-4-6.1-7.87-6.7-5.87-.83-11.73-1.65-17.6-2.44,2.37,5.94,4.72,11.89,7.05,17.84,13.39,32.36,23.51,59.86,30.76,82.44,3.18,8.88,6.23,17.75,9.14,26.59,2.17,5.78,4.34,11.55,6.48,17.32,5.85,15.9,9.8,27.62,11.99,35.15,1.01,3.65,2.8,8.77,5.34,15.35,1.13,2.96,2.25,5.92,3.37,8.88,1.18,3.69,1.42,6.28.72,7.78-.6.9-1.43,1.4-2.49,1.51-1.07.1-2.51-.02-4.33-.37-20.42-3.86-35.83-6.49-46.19-8.1-4.32-.8-8.63-1.59-12.95-2.37.64,1.83,1.25,3.59,1.83,5.28.69,2.14,1.67,3.77,2.95,4.89,1.27,1.12,2.82,1.84,4.65,2.14,10.53,1.84,21.05,3.73,31.56,5.68,10.37,1.61,25.77,4.24,46.19,8.1,1.82.35,3.26.47,4.33.37,1.07-.11,1.89-.61,2.49-1.52.7-1.49.47-4.08-.72-7.77ZM2026.14,226.27c-1.26-4.04-3.94-6.4-8.05-7.04-3.49-.54-6.98-1.08-10.47-1.61-10.28-1.57-23.87-3.39-40.79-5.37-11.94-1.68-25.12-3.36-39.56-5.02-1.65-.22-3.29-.43-4.94-.64-3.3-.42-5.87.88-7.7,3.87-1.31,2.06-2.71,4.1-4.21,6.13-1.35,2.45-2.78,4.79-4.31,7.02-1.52,2.23-3.04,4.46-4.56,6.69-2.13,2.97-4.25,5.93-6.37,8.9-1.74,2.41-3.72,3.48-5.96,3.21-.11-.01-.22-.02-.32-.04-1.3,2.05-2.18,3.68-2.66,4.87-1.3,2.48-1.62,4.45-.96,5.93.37.45,1.57.78,3.61,1,10.76,1.6,19.61,2.83,26.54,3.65.61.07,1.22.14,1.83.21,2.24.27,4.23-.8,5.97-3.21,2.12-2.97,4.24-5.93,6.36-8.9,1.52-2.23,3.04-4.46,4.57-6.69,1.52-2.23,2.95-4.57,4.3-7.03,1.51-2.02,2.9-4.06,4.21-6.12,1.84-2.99,4.41-4.29,7.7-3.87,1.65.21,3.3.42,4.95.64,14.43,1.66,27.62,3.34,39.55,5.02,13.13,1.53,24.26,2.97,33.38,4.28-.83-2.32-1.53-4.28-2.11-5.88ZM1995.4,142.29c-3.75-12.47-7.67-23.44-11.72-32.91-.5-1.07-1-1.75-1.5-2.03-.5-.27-1.02-.03-1.56.69-15.4,22.68-30.56,45.45-45.48,68.31-.52.74-.72,1.47-.6,2.19.11.72.59,1.13,1.42,1.24,8.98,1.64,19.69,3.19,32.14,4.69,9.09-13.87,18.26-27.7,27.53-41.5-.08-.23-.15-.45-.23-.68Z"/>
        <path class="cls-2" d="M2452.26,188.95c-1.95-10.25-5.76-18.99-11.41-26.17-5.67-7.19-12.47-12.94-20.39-17.25-5.12-3.05-10.7-5.67-16.74-7.83,3.3,2.8,6.33,5.97,9.08,9.46,5.66,7.18,9.47,15.92,11.42,26.18,2.11,10.51,1.64,22.51-1.35,35.99-3.38,15.67-10.24,29.03-20.48,40.15-10.24,11.13-22.76,17.19-37.6,18.3-.46.09-.99.06-1.6-.1-.66.04-1.15.22-1.45.55-.3.34-.25.98.16,1.91,3.75,9.85,7.45,19.7,11.1,29.56,6.77,15.24,11.38,27.57,13.98,36.98.62,1.62.3,2.62-.98,3-1.28.38-3.12.24-5.51-.41-7.95-2.24-15.91-4.46-23.87-6.65-8.54-2.44-15.62-4.37-21.21-5.79-1.33-.32-2.66-.64-3.99-.96.09.21.17.41.25.6l.78,2.04c1.08,2.53,2.25,4.47,3.51,5.81,1.27,1.34,2.9,2.26,4.9,2.75,7.54,1.77,15.07,3.56,22.59,5.38,5.6,1.42,12.67,3.35,21.21,5.79,7.97,2.19,15.92,4.41,23.88,6.65,2.39.65,4.22.79,5.5.41,1.28-.38,1.61-1.38.98-3-2.59-9.41-7.21-21.74-13.97-36.98-3.66-9.86-7.36-19.71-11.1-29.57-.41-.93-.47-1.56-.16-1.9.3-.33.78-.52,1.44-.55.62.16,1.15.19,1.61.1,14.84-1.11,27.36-7.18,37.6-18.3s17.1-24.48,20.47-40.15c3-13.48,3.46-25.49,1.35-36ZM2342.52,157.13c-3.42-2.89-8.49-5.16-15.23-6.78-16.74-4.01-33.49-7.9-50.27-11.67-1.9-.43-3.39-.25-4.45.54-1.06.79-1.9,2.55-2.5,5.28-1.88,8.39-3.75,16.78-5.62,25.18-1.88,8.39-3.59,15.8-5.13,22.22-1.54,6.41-2.47,10.82-2.78,13.21-.58,3.56.37,5.61,2.85,6.17l3.72.84c6.73,1.51,14.11,3.1,22.14,4.75.49-2.39,1.19-5.52,2.12-9.36,1.54-6.41,3.25-13.82,5.12-22.21,1.87-8.4,3.75-16.79,5.62-25.18.61-2.73,1.44-4.49,2.51-5.28,1.06-.79,2.54-.97,4.44-.55,14.66,3.3,29.31,6.69,43.94,10.17-1.97-2.89-4.13-5.34-6.48-7.33ZM2279.39,254.32c-1.46-3-3.5-4.92-6.11-5.73-2.86-.66-6.43-1.53-10.71-2.61-4.27-1.07-7.85-1.93-10.71-2.57-1.23-.28-2.26.01-3.09.84-.84.85-1.56,2.63-2.17,5.36-1.52,6.84-3.41,14.81-5.66,23.94-2.06,7.33-3.89,14.61-5.5,21.83-.87,3.91-1.85,6.35-2.91,7.34-1.07.99-3.01,1.18-5.82.56-6.29-1.55-18.57-4.23-36.88-7.79-.15.76-.31,1.52-.46,2.29-.55,2.75-.63,4.72-.24,5.92.39,1.2,1.59,2,3.61,2.4,4.95,1,9.89,2.01,14.83,3.03,24.07,4.56,39.78,7.94,47.19,9.76,2.81.63,4.75.44,5.82-.55,1.06-.99,2.03-3.43,2.9-7.34,1.61-7.22,3.44-14.5,5.51-21.83,2.24-9.13,4.13-17.1,5.66-23.94.61-2.73,1.33-4.52,2.16-5.36.83-.83,1.86-1.12,3.09-.84.49.11,1,.22,1.53.35-.82-1.94-1.5-3.63-2.04-5.06Z"/>
        <path class="cls-2" d="M2696.54,277.21c-2.44-9.53-5.78-18.2-10.04-26.01-3.55-6.5-8.39-13.01-14.53-19.51s-13.11-11.98-20.9-16.44c-6.82-4.56-13.6-8.24-20.32-11.03-.41-.17-.82-.34-1.25-.51,5.23,3.6,10.04,7.72,14.43,12.36,6.14,6.5,10.98,13.01,14.53,19.51,4.25,7.81,7.6,16.48,10.03,26.01s3.28,17.57,2.59,24.11c-1.9,17.77-5.87,33.13-11.8,46.1-2.53,5.26-5.42,9.91-8.64,13.97-3.24,4.06-7.14,8.46-11.71,13.22-.43.59-.86,1.18-1.29,1.77-6.16,6.75-14.25,13.03-24.25,18.9-3.55,1.95-8.59,4.08-15.11,6.4-6.53,2.33-13.02,3.98-19.5,4.98-6.02.94-12.67,1.05-19.97.33-7.3-.71-17.06-3.06-29.29-6.96-26.19-8.36-52.46-16.39-78.79-24.1,0,.02,0,.03-.01.05-.96,2.64-1.33,4.51-1.1,5.61.22,1.1,1.33,1.93,3.32,2.5,35,9.95,69.88,20.47,104.62,31.55,12.24,3.91,21.99,6.26,29.3,6.97,7.3.72,13.95.61,19.97-.33,6.47-1,12.96-2.65,19.49-4.98,6.52-2.32,11.57-4.45,15.12-6.4,9.99-5.87,18.08-12.15,24.25-18.9.42-.59.86-1.18,1.29-1.77,4.56-4.76,8.47-9.16,11.7-13.23,3.23-4.05,6.11-8.7,8.64-13.97,5.93-12.96,9.9-28.32,11.8-46.1.7-6.53-.15-14.57-2.58-24.1ZM2586.8,218.78c-3.78-2.47-7.98-4.54-12.59-6.21-4.62-1.66-10.98-3.77-19.09-6.29l-4.68-1.44c-.1-.04-.21-.07-.31-.1-.84-.26-1.44-.34-1.81-.24-.37.09-.73.71-1.08,1.86-2.24,7.27-4.26,13.44-6.05,18.54-1.23,4.02-2.7,8.8-4.41,14.34-9.67,31.45-19.34,62.89-29.01,94.34-.42,1.34-.67,2.52-.76,3.53-.1,1.02.26,1.65,1.06,1.9,2,.61,4,1.23,6,1.85,6.73,2.3,12.54,4.07,17.42,5.3,1.68.42,3.32.77,4.94,1.03,9.46-30.78,18.94-61.56,28.4-92.33,1.7-5.54,3.17-10.33,4.41-14.34,1.79-5.1,3.81-11.27,6.04-18.54.35-1.15.72-1.77,1.09-1.86.37-.1.97-.02,1.8.24.11.03.21.06.31.09,1.57.49,3.13.97,4.69,1.45,4.66,1.45,8.75,2.76,12.25,3.94-2.63-2.76-5.51-5.11-8.62-7.06Z"/>
        <path class="cls-2" d="M2929.51,534.48c-.43-3.15-.85-6.31-1.28-9.46-1.01-7.02-1.6-12.43-1.76-16.23-.43-7.86-1.64-20.22-3.76-37.11-.8-6.13-1.61-12.27-2.43-18.42-.84-9.31-1.82-18.67-2.91-28.08-1.97-23.72-5.64-52.92-11.41-87.62-1.27-8.66-2.58-17.32-3.9-25.99-.47-4.08-2.55-6.89-6.24-8.4-6.8-2.68-13.6-5.34-20.41-7.97-.55-.21-1.09-.41-1.63-.61.1.44.18.9.23,1.37,1.33,8.66,2.63,17.32,3.9,25.98,5.77,34.7,9.44,63.9,11.41,87.62,1.1,9.41,2.07,18.77,2.92,28.08.82,6.15,1.63,12.29,2.42,18.43,2.12,16.88,3.33,29.25,3.77,37.1.16,3.8.75,9.21,1.75,16.23.43,3.16.86,6.31,1.28,9.46.33,3.88-.04,6.46-1.07,7.74-.8.74-1.73,1.03-2.81.88-1.08-.16-2.48-.63-4.2-1.4-19.3-8.67-33.92-14.92-43.79-18.98-2.38-1.06-4.77-2.11-7.15-3.15.3.95.7,1.78,1.22,2.5,1,1.39,2.37,2.45,4.1,3.19,9.97,4.31,19.93,8.67,29.87,13.08,9.87,4.06,24.49,10.31,43.8,18.98,1.72.77,3.11,1.24,4.19,1.4,1.08.15,2.01-.14,2.81-.88,1.04-1.28,1.4-3.86,1.08-7.74ZM2805.9,441.23c-3.33-1.36-6.65-2.72-9.97-4.07-9.79-3.97-22.78-8.99-39.02-14.94-11.38-4.47-24-9.24-37.85-14.28-1.57-.6-3.15-1.2-4.72-1.79-3.16-1.19-5.99-.55-8.49,1.93-1.76,1.7-3.61,3.35-5.56,4.97-1.89,2.06-3.85,4.01-5.86,5.81-2.02,1.81-4.03,3.63-6.04,5.44-2.78,2.38-5.55,4.76-8.32,7.15-2.28,1.93-4.48,2.5-6.63,1.71-.44-.16-.89-.32-1.33-.49-.9,1.4-1.23,2.68-1,3.82.25.52,1.36,1.12,3.32,1.82,10.23,4.1,18.66,7.39,25.3,9.83.59.21,1.17.43,1.76.64,2.14.79,4.35.22,6.62-1.71,2.77-2.39,5.55-4.77,8.32-7.15,2.01-1.82,4.03-3.63,6.04-5.44,2.02-1.81,3.97-3.75,5.87-5.81,1.95-1.62,3.8-3.28,5.56-4.97,2.49-2.48,5.33-3.13,8.48-1.93,1.58.59,3.15,1.19,4.73,1.78,13.85,5.05,26.46,9.82,37.85,14.29,10.28,3.77,19.26,7.16,26.95,10.15-.75-3.17-2.76-5.43-6.01-6.76ZM2735.69,384.73c8.01,3.52,17.57,7.34,28.67,11.48,12.74-11.92,25.56-23.78,38.48-35.58-.83-12.34-2.13-23.37-3.87-33.09-.24-1.16-.58-1.94-1.01-2.33-.43-.38-1-.28-1.69.3-20.42,18.41-40.61,36.97-60.59,55.68-.69.6-1.05,1.27-1.1,1.99-.06.74.32,1.25,1.11,1.55Z"/>
      </g>
      <g>
        <path class="cls-1" d="M65.85,473.31c-12.5-5.3-23.17-12.51-31.98-21.72-9.88-10.03-18.52-23.13-25.85-39.36-6.75-14.94-9.28-30.54-7.45-46.81,1.83-16.27,5.55-29.89,11.11-40.85,6.29-12.58,14.2-23.04,23.67-31.33,9.47-8.29,20.75-15.82,33.82-22.54,12.45-6.46,25.78-11.68,39.95-15.64,14.17-3.95,25.72-6.02,34.63-6.28,10.42-.63,23.27,1.38,38.45,6.1,3.52,1.23,7.99,3.13,13.39,5.68,5.4,2.56,8.24,4.23,8.52,4.97.14.38-.19,1.35-1,2.94-.81,1.58-1.65,3.07-2.52,4.47-.33.66-.67,1.32-1,1.98-1.07,2.12-2.28,4.6-3.64,7.47-1.36,2.87-2.87,5.79-4.52,8.78-1.06,2.11-2.11,4.23-3.16,6.34-.2.4-.39.79-.59,1.19-.39.79-.89,1.31-1.5,1.54-.61.23-1.46.13-2.56-.3-1.85-.89-3.71-1.79-5.57-2.68-2.51-1.39-5.03-2.77-7.55-4.16-6.55-3.04-13.07-4.74-19.55-5.1-6.48-.36-13.02.67-19.61,3.08-9.84,3.71-17.6,8.35-23.26,13.9-5.66,5.55-10.24,11.53-13.72,17.95-3.04,5.8-5.25,12.41-6.63,19.81-1.38,7.41-1.54,14.58-.5,21.52.59,4.75,2.15,9.84,4.68,15.28,2.52,5.45,5.48,9.96,8.84,13.53,3.87,4.23,8.18,7.74,12.93,10.52,4.75,2.79,10.21,4.96,16.38,6.51.88.18,1.76.36,2.64.53,5.42,1.44,11.24,2.08,17.47,1.91,6.22-.16,12.16-1.16,17.8-3,8.59-3.02,15.71-6.71,21.37-11.09,5.66-4.38,10.96-9.56,15.92-15.56.67-.9,1.35-1.81,2.02-2.71,2.98-5.22,5.81-10.6,8.49-16.11.23-.3.45-.6.68-.9.84-1.39,1.75-2.27,2.75-2.65.99-.38,2.1-.16,3.32.66,5.05,3.11,10.08,6.23,15.11,9.37,6.61,4.36,11.49,7.76,14.65,10.21.74.79,1.2,1.42,1.38,1.89.17.47.04,1-.42,1.6-.2.07-.36.24-.49.5-5.86,12.64-12.35,23.33-19.54,32.07-9.66,12.26-20.65,22.55-33.04,30.9-3.7,2.55-8.32,5.46-13.85,8.76-5.53,3.3-10.05,5.89-13.56,7.75-10.82,5.49-21.91,9.75-33.31,12.79-11.4,3.04-22.47,4.5-33.26,4.35-14.41-.11-27.86-2.79-40.36-8.09Z"/>
        <path class="cls-1" d="M301.04,410.2c-1.42-.55-2.33-1.39-2.74-2.52-5.91-16.05-11.82-32.09-17.73-48.14-4.35-12.03-8.06-22.61-11.12-31.71-4.63-13.43-9.25-26.86-13.87-40.28-1.97-5.45-5.2-13.75-9.68-24.89-1.94-5.04-3.88-10.08-5.81-15.12-3.06-8.46-6.12-16.93-9.18-25.39-1.7-4.7-.58-7.77,3.36-9.19,17.22-6.19,34.48-12.25,51.77-18.18,6.28-2.05,12.57-4.08,18.86-6.09,2.5-.84,4.32-.76,5.47.22,1.14.99,2.32,3.29,3.52,6.89,2.09,6.26,4.19,12.52,6.28,18.78,1.49,4.46,2.98,8.91,4.48,13.37,4,11.95,7.57,22.62,10.71,32.01,3.14,9.39,6.33,18.92,9.57,28.59,9.49,30.36,18.99,60.71,28.51,91.06.45,1.33.17,2.95-.83,4.87-1,1.92-2.67,3.27-5.03,4.07-20.74,7.01-41.43,14.23-62.06,21.64-1.57.57-3.06.57-4.47.02Z"/>
        <path class="cls-1" d="M417.99,367.51c-6.16-19.23-18.04-56.28-35.62-111.13-3.05-9.52-5.75-17.58-8.09-24.18-2.2-6.86-4.93-15.01-8.19-24.47-2.84-8.86-5.68-17.71-8.52-26.57-.86-2.66-1.01-4.77-.47-6.31.54-1.54,2.07-2.71,4.59-3.51,5.58-1.67,11.16-3.33,16.74-4.98,20.03-5.85,39.83-11.67,59.39-17.43,3.58-1.05,6.9-.25,9.95,2.39.87,1.42,3.44,3.58,7.7,6.51,2.82,1.89,6.85,5.2,12.07,9.94,7.77,7.34,16.34,15.03,25.69,23.09,9.34,8.07,18.51,15.94,27.51,23.62,4.53,3.94,9.04,7.88,13.55,11.83,3.56,2.55,6.79,5.1,9.68,7.63,6.85,4.98,13.55,9.5,20.09,13.55,2.65,1.78,3.45.64,2.37-3.42-7.1-26.36-14.21-52.72-21.32-79.08-4.11-14.63-7.7-27.75-10.78-39.35-.62-2.32-.67-4.01-.16-5.08.51-1.06,1.82-1.88,3.94-2.44,12.29-3.24,20.37-5.21,24.24-6,1.27-.33,2.28-.12,3.04.62.75.74,1.38,2.08,1.87,4.01,14.51,56.78,23.94,93.28,28.31,109.5,6.61,25.87,13.22,51.74,19.82,77.61,1.68,6.59.97,10.49-2.13,11.69-.4.14-19.46,4.67-57.03,14.56-9.39,2.48-18.78,5-28.15,7.57-1.19.34-2.18.46-2.96.38-.78-.09-1.51-.56-2.18-1.41-7.97-7.18-15.99-14.34-24.04-21.48-3.67-2.89-8.05-6.71-13.16-11.46-5.26-4.5-10.92-9.03-17.01-13.58-6.09-4.55-12.36-9.09-18.81-13.61-12.31-9.23-20.95-15.88-25.8-20.04-4.86-4.15-6.73-4.41-5.61-.78,6.42,20.73,12.84,41.46,19.26,62.19,3.88,12.51,7.75,25.03,11.63,37.54.47,1.53.64,2.94.5,4.24-.14,1.3-.7,2.1-1.69,2.41-3.56,1.1-6.3,2.07-8.21,2.88-2.96.93-6.03,1.89-9.19,2.9-3.16,1-6.18,1.76-9.07,2.26-1.9.19-3.15-.67-3.76-2.58Z"/>
        <path class="cls-1" d="M679.7,297.95c-5.62,1.33-11.24,2.66-16.85,4.02-.8.2-1.59.03-2.35-.51-.76-.53-1.29-1.39-1.57-2.55-3.43-14.19-6.51-27.75-9.2-40.68-8.75-38.83-16.62-73.24-23.64-103.24-2.25-9.33-4.52-19.17-6.8-29.53-2.28-10.35-3.87-17.89-4.78-22.61-.4-2.58.36-4.1,2.28-4.56,10.66-2.46,21.33-4.87,32-7.23,7.84-2.01,14.43-3.56,19.79-4.66,5.35-1.1,10.27-2.15,14.75-3.13,8.32-1.84,16.65-3.64,24.98-5.42,15.6-3.33,31.21-6.55,46.84-9.67,6.1-1.22,12.21-2.42,18.31-3.61,10.71-2.08,21.43-4.11,32.16-6.1,1.93-.36,3.01.06,3.22,1.24.47,3.78,1.46,9.7,2.94,17.76.55,4.17,1.38,9.31,2.51,15.4.29,1.58.12,2.77-.49,3.6-.62.83-1.99,1.43-4.11,1.83-8.49,1.58-18.26,3.33-29.32,5.27-5.11.89-10.21,1.79-15.31,2.71-17.58,3.5-31.27,6.15-41.07,7.81-4.06.65-7.66,1.37-10.81,2.15-3.15.78-6.65,1.48-10.49,2.11-3.17.69-6.34,1.38-9.51,2.08-2.33.51-3.14,2.33-2.45,5.46,3.07,13.87,5.96,26.44,8.67,37.72.77,2.5,1.63,3.94,2.6,4.34.96.4,3.09.14,6.38-.79,17.04-3.93,38.51-8.6,64.42-13.77,2.75-.34,5.41-.66,7.96-.96,1.08,0,1.79.56,2.13,1.72.33,1.16.64,2.42.91,3.8.08.39.15.78.23,1.18.73,3.73,1.17,6.5,1.31,8.3,1.25,5.26,2.1,9.58,2.55,12.95.29,2.59.16,4.4-.38,5.43-.55,1.03-2.48,1.86-5.79,2.52-10.28,1.84-20.56,3.73-30.83,5.66-16.78,3.29-29.91,6.04-39.4,8.13-1.24.27-2.05.76-2.44,1.46-.39.7-.38,1.93,0,3.69,2.33,10.55,4.92,22.26,7.77,35.15.3,1.37.71,2.25,1.23,2.65.51.4,1.3.59,2.36.55,7.8-1.41,15.61-2.8,23.42-4.15,4.28-.91,10.03-1.92,17.25-3.02,6.85-1.32,13.71-2.62,20.57-3.9,4.08-.82,8.17-1.64,12.25-2.45,17.57-3.47,30.51-5.6,38.81-6.53,2.29-.22,3.88.4,4.79,1.86.9,1.46,1.54,3.79,1.92,6.97.58,3.15.95,5.73,1.11,7.73.43,2.36.87,4.72,1.31,7.08.25,2.5.5,4.99.75,7.49.3,2.79.2,4.8-.3,6.01-.51,1.21-1.96,2.15-4.35,2.79-5.96,1.11-11.93,2.24-17.89,3.39-15.64,2.6-25.74,4.54-30.35,5.67-16.14,3.25-32.27,6.62-48.37,10.11-6.34,1.37-12.68,2.76-19.02,4.17-14.22,2.96-28.43,6.01-42.63,9.15Z"/>
        <path class="cls-1" d="M1068.87,225.55c-1.67-15.11-3.33-30.22-5-45.33-2.79-23.84-4.76-40.62-5.9-50.36-.5-4.27-1-8.54-1.5-12.81-.33-2.78-.84-4.43-1.54-4.95-.7-.52-1.67.4-2.88,2.76-1.32,2.37-2.64,4.74-3.96,7.12-4.59,8-10.31,17.82-17.11,29.45-6.8,11.64-13.84,24.19-21.07,37.66-4.16,6.6-8.38,13.43-12.63,20.48-2.01,2.9-4.01,5.8-6,8.7-1.74,2.47-3.36,3.95-4.85,4.47-1.49.51-3.19-.1-5.11-1.85-4.07-3.66-9.82-10.21-17.29-19.63-1.28-1.53-2.55-3.06-3.83-4.59-6.58-7.52-13.2-15.02-19.86-22.5-11.17-12.05-22.45-24.06-33.83-36.01-1.34-1.61-2.42-2.29-3.24-2.06-.82.24-1.08,1.34-.76,3.31,1.6,9.26,3.21,18.53,4.81,27.79,4.4,26.54,8.79,53.08,13.18,79.62.41,2.57-.7,4.06-3.33,4.49-4.56.74-9.13,1.49-13.69,2.25-2.84.47-5.43.86-7.78,1.15-2.35.3-4.42.7-6.21,1.21-1.21.21-2.11-.14-2.69-1.06-.58-.91-1.08-2.65-1.52-5.22-4.81-27.99-9.36-53.79-13.64-77.41-5.31-30.24-10.62-60.48-15.94-90.71-1.27-7.39-2.55-14.78-3.82-22.17-.95-5.51.83-8.67,5.34-9.44,14.61-2.49,25.89-4.42,33.82-5.9,8.18-1.31,15.38-2.49,21.61-3.55,6.23-1.06,10.87-1.71,13.92-1.97,1.51-.23,2.69-.05,3.55.53.86.58,2.31,1.83,4.36,3.75.27.37.67.81,1.19,1.34,3.26,3.46,6.51,6.92,9.76,10.39,24.72,29.95,40.26,48.24,47.37,54.55.24.17.48.34.71.51,1.72,1.58,3.01,2.42,3.88,2.51.87.09,1.91-.96,3.13-3.14,1.72-3.25,5.67-11.04,11.98-23.35,6.3-12.3,10.84-21.63,13.54-28.01,2.43-4.93,5.19-10.01,8.27-15.21,2.63-5.35,5.02-9.97,7.19-13.85,1.95-3.85,4.44-5.96,7.47-6.31,3.65-.62,10.19-1.43,19.61-2.37,9.42-.94,19.75-2,31.01-3.15,8.34-.75,16.69-1.47,25.04-2.16,2.16-.2,3.6-.09,4.29.35.7.44,1.14,1.65,1.32,3.64.28,4.19.57,8.38.85,12.57.82,8.76,1.73,19.63,2.73,32.59,1.01,10.75,1.86,20.42,2.56,28.99.69,8.57,1.59,18.64,2.67,30.18,2.3,24.49,3.75,41.13,4.37,49.91,1.07,14.76,2.15,29.53,3.23,44.29.13,1.4,0,2.67-.41,3.81-.41,1.14-1.22,1.77-2.45,1.89-23.78,2.26-47.55,4.78-71.29,7.54-2.04.24-3.25-1.33-3.65-4.71Z"/>
        <path class="cls-1" d="M1184.17,218.22c-2.05.17-3.29.08-3.73-.29-.94-1.32-1.01-3.33-.2-6,.57-3.06,3.04-9.09,7.49-18.08,1.71-4.45,3.42-8.91,5.15-13.36,1.56-3.93,3.16-7.97,4.82-12.12,1.66-4.14,3.28-8.18,4.86-12.11,2.03-4.87,4.08-9.74,6.13-14.6,4.52-11.17,9.1-22.33,13.72-33.48,7.82-18.39,15.79-36.75,23.89-55.09,3.61-7.64,7.59-16.59,11.97-26.87,2.5-5.35,5.09-11.11,7.8-17.27,1.33-3.28,3.63-5.11,6.88-5.49,7.38-.4,18.44-1.18,33.19-2.24,7.16-.42,14.32-.82,21.49-1.2,3.91-.15,6.91,1.54,8.99,5.06,4.72,7.33,9.42,14.67,14.08,22.02,19.3,29.18,34.47,54.23,45.89,74.99,4.81,8.1,9.49,16.22,14.03,24.34,3.23,5.25,6.46,10.5,9.66,15.75,8.76,14.48,14.87,25.22,18.45,32.19,1.68,3.39,4.41,8.06,8.16,14.04,1.67,2.69,3.33,5.38,4.99,8.07,1.87,3.39,2.59,5.89,2.19,7.49-.41,1-1.12,1.65-2.14,1.96-1.03.31-2.46.46-4.3.47-20.7.14-36.27.52-46.71.92-10.65.11-21.31.28-31.96.49-1.84.05-3.5-.35-4.96-1.2-1.46-.86-2.74-2.26-3.83-4.23-2.61-4.52-5.55-9.58-8.84-15.17-3.29-5.59-5.82-9.85-7.58-12.79-2-3.73-5.08-5.52-9.22-5.36-3.52.14-7.04.28-10.56.43-10.36.44-24.02,1.25-40.97,2.56-12.01.65-25.25,1.52-39.72,2.67-1.66.11-3.31.22-4.96.33-3.31.22-5.58,1.98-6.81,5.27-.88,2.27-1.86,4.54-2.95,6.82-.85,2.67-1.81,5.24-2.87,7.72-1.07,2.48-2.13,4.96-3.19,7.45-1.52,3.32-3.03,6.63-4.53,9.95-1.24,2.7-2.99,4.13-5.23,4.3-.61.05-1.23.09-1.84.14-6.95.53-15.86,1.02-26.72,1.52ZM1293.11,144.2c11.25-.97,20.01-1.56,26.27-1.83,1.88-.08,2.96-.43,3.25-1.04.29-.61.09-1.5-.58-2.68-.23-.49-.46-.98-.69-1.47-1.48-2.74-2.96-5.48-4.44-8.22-2.05-3.71-4.11-7.43-6.17-11.14-3.66-6.44-7.34-12.88-11.04-19.31-6.06-11.52-12-21.53-17.79-30.05-.69-.96-1.31-1.53-1.85-1.7-.55-.17-1.01.16-1.39.98-10.73,25.21-21.22,50.47-31.45,75.77-.37.83-.43,1.58-.17,2.27.25.69.79,1,1.63.95,11.93-.15,26.73-1.03,44.43-2.53Z"/>
        <path class="cls-1" d="M1705.43,208.64c-6.26-15.26-12.62-30.51-19.08-45.74-3.05-8-7.45-17.99-13.27-29.94-3.7-8.83-7.31-16.79-10.83-23.89-3.53-7.1-7.77-16.08-12.75-26.95-7.38-14.19-16.12-32.72-26.38-55.58-2.69-5.42-5.39-10.83-8.1-16.24-1.41-2.86-2.19-5.19-2.33-7-.15-1.81.65-2.68,2.39-2.61,8.69.15,21.94.7,39.74,1.79,17.79,1.1,32.1,2.15,42.94,3.03,2.37.35,4.24.97,5.6,1.86,1.36.89,2.51,2.37,3.47,4.43.67,2.85,6.17,15.93,16.17,39.28,7.54,16.77,14.97,33.56,22.27,50.38,3.33,7.78,6.63,15.57,9.91,23.35,2.22,5.2,4.43,10.39,6.63,15.59,1.04,2.7,2.11,4.34,3.22,4.94,1.1.6,2.26-.06,3.48-1.96,6-8.72,16.52-27.09,31.93-54.99,3.7-6.49,7.42-12.97,11.16-19.44,3.88-6.86,10.92-18.54,21.27-35,1.68-2.65,3.36-5.29,5.05-7.93,2.58-3.96,4.53-6.42,5.83-7.4,1.3-.97,3.37-1.41,6.21-1.32,1.75-.01,6.5.58,14.25,1.82,5.18.66,10.36,1.34,15.54,2.02,1.3.15,2.27.71,2.93,1.69.65.98.58,2.13-.23,3.45-7.51,12.23-19.57,31.6-35.81,58.25-16.24,26.64-29.77,49.42-40.82,68.25-5.5,9.12-11.08,18.34-16.72,27.66-6.68,11.44-13.25,22.4-19.73,32.87-1.68,2.67-2.96,4.41-3.85,5.24-.9.82-2.26,1.16-4.1,1-11.43-1.07-22.87-2.08-34.31-3.04-4.29-.32-8.59-.63-12.88-.94-4.09-.29-7.01-2.6-8.77-6.93Z"/>
        <path class="cls-1" d="M1849.05,227.2c-2.04-.23-3.24-.56-3.61-1-.67-1.48-.35-3.46.96-5.93,1.14-2.89,4.74-8.33,10.83-16.31,2.53-4.04,5.07-8.08,7.62-12.12,2.28-3.56,4.64-7.22,7.06-10.97,2.42-3.74,4.79-7.39,7.1-10.95,2.93-4.39,5.88-8.77,8.83-13.15,6.59-10.09,13.23-20.16,19.92-30.21,11.22-16.54,22.58-33.03,34.07-49.47,5.01-6.8,10.65-14.82,16.93-24.07,3.48-4.77,7.15-9.93,10.99-15.45,1.94-2.96,4.55-4.32,7.82-4.06,7.33,1.03,18.35,2.39,33.07,4.18,7.13.96,14.25,1.95,21.37,2.96,3.88.6,6.51,2.84,7.88,6.7,3.24,8.1,6.44,16.21,9.62,24.32,13.38,32.36,23.51,59.86,30.76,82.44,3.18,8.88,6.23,17.75,9.14,26.59,2.18,5.77,4.34,11.55,6.49,17.32,5.85,15.9,9.8,27.62,11.99,35.15,1.01,3.65,2.8,8.76,5.34,15.35,1.12,2.96,2.24,5.92,3.36,8.88,1.19,3.69,1.42,6.28.72,7.77-.6.91-1.42,1.41-2.49,1.51-1.07.1-2.51-.02-4.33-.36-20.42-3.86-35.83-6.49-46.19-8.1-10.51-1.94-21.04-3.84-31.57-5.68-1.82-.3-3.38-1.01-4.65-2.13-1.28-1.12-2.26-2.75-2.95-4.89-1.7-4.94-3.62-10.47-5.78-16.59-2.16-6.12-3.83-10.79-5-14.01-1.25-4.04-3.94-6.39-8.04-7.03-3.49-.54-6.98-1.08-10.48-1.61-10.28-1.57-23.87-3.39-40.79-5.37-11.93-1.68-25.12-3.36-39.56-5.02-1.65-.21-3.29-.42-4.94-.63-3.3-.42-5.87.87-7.7,3.87-1.31,2.06-2.71,4.1-4.21,6.13-1.35,2.45-2.78,4.79-4.31,7.02-1.52,2.23-3.05,4.46-4.56,6.69-2.13,2.96-4.25,5.93-6.37,8.9-1.74,2.41-3.73,3.48-5.97,3.21-.61-.07-1.22-.15-1.83-.22-6.93-.82-15.77-2.05-26.54-3.64ZM1970.33,175.5c11.25,1.22,19.98,2.32,26.19,3.26,1.86.28,3,.15,3.4-.39.4-.55.38-1.46-.06-2.74-.13-.53-.26-1.05-.4-1.58-.93-2.97-1.86-5.95-2.79-8.92-1.3-4.04-2.61-8.08-3.93-12.12-2.36-7.03-4.74-14.05-7.15-21.07-3.75-12.47-7.66-23.44-11.72-32.91-.49-1.08-1-1.76-1.49-2.03-.5-.27-1.02-.04-1.56.69-15.4,22.67-30.56,45.44-45.48,68.3-.52.74-.72,1.47-.6,2.19.11.72.59,1.13,1.42,1.24,11.75,2.14,26.47,4.13,44.17,6.07Z"/>
        <path class="cls-1" d="M2342.82,319.27c-8.54-2.44-15.61-4.37-21.21-5.79-7.53-1.82-15.05-3.61-22.59-5.37-2-.5-3.64-1.41-4.9-2.76-1.26-1.34-2.44-3.27-3.52-5.81-.26-.68-.52-1.36-.78-2.04-2.69-6.42-7.21-18.02-13.72-34.78-5.13-10.88-8.66-18.79-10.52-23.74-1.45-3-3.49-4.92-6.1-5.73-2.87-.66-6.43-1.53-10.71-2.61-4.28-1.07-7.85-1.93-10.72-2.58-1.23-.28-2.26,0-3.09.84-.83.84-1.55,2.63-2.16,5.36-1.53,6.83-3.42,14.81-5.66,23.94-2.06,7.33-3.89,14.61-5.5,21.83-.87,3.91-1.84,6.35-2.9,7.35-1.07.99-3.01,1.17-5.82.55-7.4-1.83-23.12-5.2-47.19-9.77-4.94-1.02-9.88-2.03-14.82-3.02-2.02-.41-3.22-1.21-3.61-2.41-.39-1.2-.31-3.17.24-5.92,3.89-19.41,7.26-36.28,10.13-50.6,1.25-7.3,7.93-41.25,20.05-101.85,1.75-9.85,4.07-22.03,6.98-36.54.55-2.74,1.43-4.66,2.65-5.74,1.22-1.08,3.02-1.48,5.42-1.21,4.96.8,11.57,1.99,19.82,3.6,8.25,1.61,16.33,3.27,24.23,4.96,5.53,1.29,11.06,2.59,16.59,3.91,32.18,6.25,58.89,12.14,80.15,17.31,11.48,2.79,20.49,5.35,27.03,7.61,6.54,2.26,12.55,5.03,18.04,8.3,7.92,4.31,14.73,10.07,20.39,17.25,5.66,7.19,9.47,15.92,11.42,26.18,2.11,10.51,1.64,22.51-1.35,36-3.37,15.67-10.23,29.03-20.47,40.15-10.24,11.13-22.76,17.19-37.6,18.3-.46.09-.99.05-1.6-.11-.66.04-1.15.22-1.45.55-.31.34-.25.97.16,1.9,3.75,9.85,7.45,19.71,11.1,29.57,6.76,15.24,11.38,27.57,13.97,36.97.63,1.62.3,2.62-.98,3-1.28.38-3.12.24-5.51-.4-7.95-2.25-15.91-4.47-23.87-6.66ZM2249.31,196.77c10.54,2.38,22.68,4.91,36.41,7.64,13.73,2.74,22.24,3.64,25.56,2.6,4.87-.25,9.16-1.71,12.9-4.4,3.73-2.68,6.81-5.78,9.23-9.3,2.42-3.52,4.17-7,5.26-10.44,1.77-5.32,2.58-10.54,2.42-15.63-.17-5.09-1.28-9.75-3.35-13.97-2.6-4.77-5.61-8.6-9.02-11.49-3.42-2.89-8.49-5.16-15.23-6.78-16.74-4.01-33.5-7.91-50.27-11.68-1.9-.43-3.39-.25-4.44.54-1.06.79-1.9,2.55-2.51,5.28-1.87,8.39-3.75,16.79-5.62,25.18-1.87,8.39-3.58,15.8-5.12,22.22-1.54,6.42-2.47,10.82-2.78,13.21-.58,3.56.37,5.62,2.85,6.17,1.24.28,2.48.56,3.72.84Z"/>
        <path class="cls-1" d="M2434.65,246.36c.88-3.49,1.76-6.99,2.64-10.48,2.9-11.03,8.44-30.97,16.61-59.84,2.91-10.3,5.83-20.59,8.74-30.89.98-3.47,2.31-5.74,3.98-6.82,1.67-1.08,4.1-1.18,7.26-.27,5.8,1.66,11.6,3.33,17.39,5.02,2,.58,4,1.17,6,1.75,10.74,3.15,21.47,6.34,32.19,9.59,11.24,3.41,22.47,6.87,33.69,10.39,11.11,3.48,20.03,6.65,26.75,9.45,6.72,2.8,13.5,6.47,20.33,11.04,7.78,4.45,14.76,9.94,20.9,16.44,6.14,6.5,10.98,13.01,14.53,19.51,4.26,7.8,7.6,16.47,10.04,26,2.43,9.53,3.28,17.57,2.58,24.11-1.9,17.78-5.87,33.14-11.8,46.1-2.54,5.26-5.42,9.91-8.64,13.97-3.23,4.06-7.14,8.46-11.7,13.22-.43.59-.86,1.18-1.29,1.77-6.16,6.75-14.25,13.03-24.25,18.9-3.55,1.95-8.6,4.08-15.12,6.4-6.53,2.33-13.02,3.98-19.49,4.98-6.02.94-12.67,1.05-19.97.33-7.3-.71-17.06-3.06-29.3-6.96-34.75-11.08-69.62-21.6-104.62-31.56-1.99-.57-3.1-1.4-3.32-2.5-.23-1.1.14-2.97,1.1-5.61.03-.1.05-.19.08-.29,3.92-12.71,7.84-25.43,11.77-38.14,1.72-5.33,3.26-10.56,4.61-15.69,1.34-5.13,2.72-10.19,4.14-15.2,1.39-4.91,2.78-9.81,4.17-14.72ZM2495.27,324.66c2,.62,4,1.23,6,1.85,6.73,2.3,12.55,4.07,17.43,5.3,4.88,1.23,9.53,1.82,13.95,1.76,3.1-.06,7.2-1.52,12.32-4.38,5.12-2.86,9.12-5.6,11.98-8.25,7.39-7.69,13.42-15.34,18.06-22.97,4.64-7.63,8.67-16.57,12.05-26.82,3.26-9.87,5.25-18.64,5.96-26.31.7-7.66-.37-15.13-3.26-22.38-1.34-3.59-3.44-6.96-6.32-10.1-2.87-3.14-6.03-5.78-9.45-7.93-3.79-2.47-7.98-4.54-12.6-6.21-4.61-1.66-10.97-3.77-19.09-6.29-1.56-.48-3.12-.97-4.68-1.45-.1-.03-.21-.06-.31-.1-.83-.26-1.44-.34-1.81-.24-.37.1-.73.72-1.09,1.86-2.24,7.27-4.25,13.44-6.04,18.54-1.23,4.01-2.71,8.8-4.41,14.34-9.67,31.45-19.34,62.89-29.02,94.34-.41,1.34-.67,2.52-.76,3.53-.1,1.02.26,1.65,1.06,1.9Z"/>
        <path class="cls-1" d="M2632.59,408.35c-1.96-.7-3.07-1.31-3.32-1.83-.31-1.59.45-3.45,2.31-5.54,1.79-2.54,6.59-6.99,14.43-13.31,3.43-3.34,6.86-6.67,10.3-9.99,3.07-2.93,6.23-5.93,9.49-9,3.25-3.07,6.42-6.07,9.52-8.98,3.9-3.58,7.81-7.15,11.73-10.71,8.82-8.26,17.68-16.49,26.59-24.69,14.87-13.44,29.87-26.8,44.99-40.07,6.51-5.43,13.91-11.9,22.24-19.41,4.54-3.82,9.33-7.97,14.4-12.43,2.6-2.42,5.48-3.12,8.64-2.09,6.99,2.74,17.56,6.69,31.67,11.94,6.81,2.64,13.62,5.29,20.42,7.97,3.69,1.51,5.77,4.32,6.23,8.4,1.33,8.66,2.63,17.32,3.9,25.98,5.77,34.7,9.44,63.9,11.41,87.62,1.1,9.41,2.07,18.77,2.91,28.08.82,6.14,1.63,12.28,2.43,18.42,2.12,16.89,3.33,29.25,3.77,37.11.16,3.8.75,9.2,1.75,16.23.43,3.15.86,6.31,1.28,9.46.33,3.88-.04,6.46-1.07,7.74-.8.74-1.73,1.03-2.81.87-1.08-.16-2.48-.62-4.2-1.4-19.31-8.67-33.92-14.92-43.79-18.98-9.94-4.41-19.9-8.77-29.88-13.09-1.73-.73-3.1-1.79-4.1-3.19-1-1.4-1.6-3.22-1.79-5.47-.54-5.21-1.17-11.06-1.89-17.53-.72-6.47-1.3-11.42-1.71-14.84-.3-4.24-2.41-7.16-6.32-8.77-3.32-1.36-6.65-2.72-9.97-4.07-9.78-3.97-22.78-8.99-39.01-14.94-11.38-4.47-24-9.24-37.85-14.28-1.58-.6-3.15-1.19-4.73-1.79-3.15-1.19-5.99-.54-8.48,1.94-1.76,1.69-3.61,3.35-5.56,4.96-1.9,2.07-3.85,4.01-5.86,5.82-2.02,1.81-4.03,3.62-6.04,5.43-2.78,2.38-5.55,4.77-8.32,7.15-2.27,1.93-4.48,2.5-6.62,1.71-.59-.22-1.17-.43-1.76-.65-6.64-2.44-15.07-5.72-25.3-9.82ZM2764.06,386.79c10.82,3.86,19.18,7.02,25.09,9.41,1.77.72,2.92.86,3.44.43.52-.44.71-1.33.57-2.68,0-.54-.02-1.09-.03-1.63-.23-3.12-.46-6.23-.7-9.35-.36-4.24-.72-8.49-1.09-12.73-.71-7.4-1.45-14.81-2.2-22.21-.83-13.04-2.16-24.64-3.98-34.82-.24-1.17-.58-1.95-1.01-2.33-.44-.38-1-.28-1.69.3-20.42,18.41-40.61,36.97-60.59,55.68-.69.6-1.05,1.26-1.1,1.99-.06.73.32,1.24,1.11,1.55,11.09,4.87,25.15,10.3,42.17,16.4Z"/>
      </g>
    </g>
  </g>
</svg>